<svg version="1.2" baseProfile="tiny-ps" xmlns="http://www.w3.org/2000/svg" viewBox="0 0 302 354" width="302" height="354">
	<title>OBJECTS</title>
	<defs>
		<linearGradient id="grd1" gradientUnits="userSpaceOnUse"  x1="83.325" y1="-102.373" x2="430.819" y2="98.252">
			<stop offset="0.771" stop-color="#36491e"  />
			<stop offset="0.903" stop-color="#668433"  />
			<stop offset="1" stop-color="#ff854b"  />
		</linearGradient>
		<linearGradient id="grd2" gradientUnits="userSpaceOnUse"  x1="311.615" y1="137.983" x2="222.534" y2="340.89">
			<stop offset="0.001" stop-color="#36491e"  />
			<stop offset="0.27" stop-color="#6e8d35"  />
			<stop offset="1" stop-color="#ff854b"  />
		</linearGradient>
		<linearGradient id="grd3" gradientUnits="userSpaceOnUse"  x1="52.778" y1="349.301" x2="50.527" y2="116.773">
			<stop offset="0.001" stop-color="#618434"  />
			<stop offset="0.391" stop-color="#b0b53a"  />
			<stop offset="1" stop-color="#ff854b"  />
		</linearGradient>
		<linearGradient id="grd4" gradientUnits="userSpaceOnUse"  x1="-4.739" y1="349.822" x2="-6.989" y2="117.322">
			<stop offset="0.001" stop-color="#618434"  />
			<stop offset="0.391" stop-color="#b0b53a"  />
			<stop offset="1" stop-color="#ff854b"  />
		</linearGradient>
		<linearGradient id="grd5" gradientUnits="userSpaceOnUse"  x1="190.76" y1="271.835" x2="190.804" y2="271.796">
			<stop offset="0.001" stop-color="#618434"  />
			<stop offset="0.391" stop-color="#b0b53a"  />
			<stop offset="1" stop-color="#ff854b"  />
		</linearGradient>
		<linearGradient id="grd6" gradientUnits="userSpaceOnUse"  x1="55.907" y1="50.052" x2="62.564" y2="50.052">
			<stop offset="0.001" stop-color="#36491e"  />
			<stop offset="0.132" stop-color="#6e8d35"  />
			<stop offset="0.362" stop-color="#ff854b"  />
		</linearGradient>
		<linearGradient id="grd7" gradientUnits="userSpaceOnUse"  x1="51.298" y1="-4.832" x2="967.798" y2="-4.832">
			<stop offset="0.001" stop-color="#36491e"  />
			<stop offset="0.132" stop-color="#6e8d35"  />
			<stop offset="0.362" stop-color="#ff854b"  />
		</linearGradient>
		<linearGradient id="grd8" gradientUnits="userSpaceOnUse"  x1="27.75" y1="-2.252" x2="77.25" y2="-2.252">
			<stop offset="0.001" stop-color="#618434" stop-opacity="0" />
			<stop offset="1" stop-color="#ff854b"  />
		</linearGradient>
		<linearGradient id="grd9" gradientUnits="userSpaceOnUse"  x1="29.462" y1="295.023" x2="78.962" y2="295.023">
			<stop offset="0.001" stop-color="#618434" stop-opacity="0" />
			<stop offset="1" stop-color="#ff854b"  />
		</linearGradient>
		<linearGradient id="grd10" gradientUnits="userSpaceOnUse"  x1="277.304" y1="287.024" x2="309.186" y2="318.906">
			<stop offset="0.001" stop-color="#618434" stop-opacity="0" />
			<stop offset="1" stop-color="#ff854b"  />
		</linearGradient>
		<linearGradient id="grd11" gradientUnits="userSpaceOnUse"  x1="303.137" y1="78.54" x2="303.137" y2="128.04">
			<stop offset="0.001" stop-color="#618434" stop-opacity="0" />
			<stop offset="1" stop-color="#ff854b"  />
		</linearGradient>
		<linearGradient id="grd12" gradientUnits="userSpaceOnUse"  x1="219.218" y1="223.008" x2="251.1" y2="254.89">
			<stop offset="0.001" stop-color="#618434" stop-opacity="0" />
			<stop offset="1" stop-color="#ff854b"  />
		</linearGradient>
	</defs>
	<style>
		tspan { white-space:pre }
		.shp0 { fill: url(#grd1) } 
		.shp1 { fill: none;stroke: #000000;stroke-width: 0.75 } 
		.shp2 { fill: url(#grd2) } 
		.shp3 { fill: url(#grd3) } 
		.shp4 { fill: url(#grd4) } 
		.shp5 { fill: url(#grd5) } 
		.shp6 { fill: url(#grd6) } 
		.shp7 { fill: url(#grd7) } 
		.shp8 { fill: url(#grd8) } 
		.shp9 { fill: url(#grd9) } 
		.shp10 { fill: url(#grd10) } 
		.shp11 { fill: url(#grd11) } 
		.shp12 { fill: url(#grd12) } 
	</style>
	<g id="OBJECTS">
		<g id="&lt;Group&gt;">
			<g id="&lt;Group&gt;">
				<g id="&lt;Group&gt;">
					<path id="&lt;Path&gt;" class="shp0" d="M54.82 352.77C25.17 352.77 1.06 328.66 1.06 299.01L1.06 54.93C1.06 25.29 25.17 1.17 54.82 1.17L195.93 1.17C253.39 1.17 300.14 47.92 300.14 105.38C300.14 158.63 260 202.67 208.39 208.85L294.31 306.1C304.35 317.46 303.28 334.81 291.92 344.84C280.56 354.87 263.21 353.8 253.18 342.44L127.61 200.32C120.47 192.23 118.72 180.71 123.16 170.87C127.6 161.03 137.39 154.71 148.18 154.71L195.93 154.71C223.13 154.71 245.25 132.58 245.25 105.38C245.25 78.18 223.13 56.05 195.93 56.05L55.94 56.05L55.94 297.91C70.58 298.5 82.26 310.55 82.26 325.33C82.26 340.49 69.98 352.77 54.82 352.77Z" />
				</g>
				<g id="&lt;Group&gt;">
					<path id="&lt;Path&gt;" class="shp1" d="M54.82 352.77C25.17 352.77 1.06 328.66 1.06 299.01L1.06 54.93C1.06 25.29 25.17 1.17 54.82 1.17L195.93 1.17C253.39 1.17 300.14 47.92 300.14 105.38C300.14 158.63 260 202.67 208.39 208.85L294.31 306.1C304.35 317.46 303.28 334.81 291.92 344.84C280.56 354.87 263.21 353.8 253.18 342.44L127.61 200.32C120.47 192.23 118.72 180.71 123.16 170.87C127.6 161.03 137.39 154.71 148.18 154.71L195.93 154.71C223.13 154.71 245.25 132.58 245.25 105.38C245.25 78.18 223.13 56.05 195.93 56.05L55.94 56.05L55.94 297.91C70.58 298.5 82.26 310.55 82.26 325.33C82.26 340.49 69.98 352.77 54.82 352.77Z" />
				</g>
				<path id="&lt;Path&gt;" class="shp2" d="M300.14 105.38C300.14 109.09 299.92 112.75 299.54 116.37C294.47 164.58 256.4 203.1 208.39 208.85L237.66 241.98L237.59 242.05C246.69 253.53 245.17 270.24 233.97 279.88C222.84 289.45 206.27 288.5 196.26 278.01L194.75 276.31L127.61 200.32C120.47 192.23 118.72 180.71 123.16 170.87C127.6 161.03 137.39 154.71 148.18 154.71L195.93 154.71C223.13 154.71 245.25 132.58 245.25 105.38C245.25 78.18 223.13 56.05 195.93 56.05L57.71 56.05C71.51 54.61 82.26 42.94 82.26 28.77C82.26 13.99 70.58 1.93 55.94 1.35L55.94 1.17L195.93 1.17C253.39 1.17 300.14 47.92 300.14 105.38Z" />
				<path id="&lt;Path&gt;" class="shp1" d="M300.14 105.38C300.14 109.09 299.92 112.75 299.54 116.37C294.47 164.58 256.4 203.1 208.39 208.85L237.66 241.98L237.59 242.05C246.69 253.53 245.17 270.24 233.97 279.88C222.84 289.45 206.27 288.5 196.26 278.01L194.75 276.31L127.61 200.32C120.47 192.23 118.72 180.71 123.16 170.87C127.6 161.03 137.39 154.71 148.18 154.71L195.93 154.71C223.13 154.71 245.25 132.58 245.25 105.38C245.25 78.18 223.13 56.05 195.93 56.05L57.71 56.05C71.51 54.61 82.26 42.94 82.26 28.77C82.26 13.99 70.58 1.93 55.94 1.35L55.94 1.17L195.93 1.17C253.39 1.17 300.14 47.92 300.14 105.38Z" />
				<g id="&lt;Group&gt;">
					<path id="&lt;Path&gt;" class="shp3" d="M55.94 56.05L57.71 56.05C57.13 56.11 56.53 56.13 55.94 56.15L55.94 56.05Z" />
					<path id="&lt;Path&gt;" class="shp4" d="M57.71 56.05L55.94 56.05L55.94 56.15L55.94 297.91C70.58 298.5 82.26 310.55 82.26 325.33C82.26 340.49 69.98 352.77 54.82 352.77C25.17 352.77 1.06 328.66 1.06 299.01L1.06 54.93C1.06 45.4 3.57 36.46 7.94 28.69C17.16 12.29 34.7 1.17 54.82 1.17L55.94 1.17L55.94 1.35C70.58 1.93 82.26 13.99 82.26 28.77C82.26 42.94 71.51 54.61 57.71 56.05Z" />
					<path id="&lt;Path&gt;" class="shp5" d="M194.75 276.31L196.26 278.01C195.93 277.66 195.58 277.34 195.27 276.97C195.08 276.76 194.93 276.53 194.75 276.31Z" />
				</g>
				<g id="&lt;Group&gt;">
					<path id="&lt;Path&gt;" class="shp1" d="M55.94 56.05L57.71 56.05C57.13 56.11 56.53 56.13 55.94 56.15L55.94 56.05Z" />
					<path id="&lt;Path&gt;" class="shp1" d="M57.71 56.05L55.94 56.05L55.94 56.15L55.94 297.91C70.58 298.5 82.26 310.55 82.26 325.33C82.26 340.49 69.98 352.77 54.82 352.77C25.17 352.77 1.06 328.66 1.06 299.01L1.06 54.93C1.06 45.4 3.57 36.46 7.94 28.69C17.16 12.29 34.7 1.17 54.82 1.17L55.94 1.17L55.94 1.35C70.58 1.93 82.26 13.99 82.26 28.77C82.26 42.94 71.51 54.61 57.71 56.05Z" />
					<path id="&lt;Path&gt;" class="shp1" d="M194.75 276.31L196.26 278.01C195.93 277.66 195.58 277.34 195.27 276.97C195.08 276.76 194.93 276.53 194.75 276.31Z" />
				</g>
				<g id="&lt;Group&gt;">
					<path id="&lt;Path&gt;" class="shp6" d="M55.94 56.05L57.71 56.05C57.13 56.11 56.53 56.13 55.94 56.15L55.94 56.05Z" />
					<path id="&lt;Path&gt;" class="shp7" d="M300.14 105.38C300.14 106.55 300.1 107.71 300.06 108.88C298.8 122.87 287.08 133.84 272.76 133.84C257.6 133.84 245.32 121.55 245.32 106.4C245.32 105.2 245.39 104.03 245.47 102.86C245.36 102.9 245.25 102.92 245.13 103C243.88 76.91 222.32 56.05 195.93 56.05L57.71 56.05C71.51 54.61 82.26 42.94 82.26 28.77C82.26 13.99 70.58 1.93 55.94 1.35L55.94 1.17L195.93 1.17C234.78 1.17 268.7 22.55 286.62 54.15C295.21 69.29 300.14 86.76 300.14 105.38Z" />
				</g>
				<g id="&lt;Group&gt;">
					<path id="&lt;Path&gt;" class="shp1" d="M55.94 56.05L57.71 56.05C57.13 56.11 56.53 56.13 55.94 56.15L55.94 56.05Z" />
					<path id="&lt;Path&gt;" class="shp1" d="M300.14 105.38C300.14 106.55 300.1 107.71 300.06 108.88C298.8 122.87 287.08 133.84 272.76 133.84C257.6 133.84 245.32 121.55 245.32 106.4C245.32 105.2 245.39 104.03 245.47 102.86C245.36 102.9 245.25 102.92 245.13 103C243.88 76.91 222.32 56.05 195.93 56.05L57.71 56.05C71.51 54.61 82.26 42.94 82.26 28.77C82.26 13.99 70.58 1.93 55.94 1.35L55.94 1.17L195.93 1.17C234.78 1.17 268.7 22.55 286.62 54.15C295.21 69.29 300.14 86.76 300.14 105.38Z" />
				</g>
			</g>
			<path id="&lt;Path&gt;" class="shp8" d="M77.25 28.5C77.25 42.17 66.17 53.25 52.5 53.25C38.83 53.25 27.75 42.17 27.75 28.5C27.75 14.83 38.83 3.75 52.5 3.75C66.17 3.75 77.25 14.83 77.25 28.5Z" />
			<path id="&lt;Path&gt;" class="shp9" d="M78.96 325.77C78.96 339.44 67.88 350.52 54.21 350.52C40.54 350.52 29.46 339.44 29.46 325.77C29.46 312.1 40.54 301.02 54.21 301.02C67.88 301.02 78.96 312.1 78.96 325.77Z" />
			<path id="&lt;Path&gt;" class="shp10" d="M290.94 340.27C281.27 349.94 265.6 349.94 255.94 340.27C246.27 330.61 246.27 314.94 255.94 305.27C265.6 295.6 281.27 295.6 290.94 305.27C300.61 314.94 300.61 330.61 290.94 340.27Z" />
			<path id="&lt;Path&gt;" class="shp11" d="M272.39 128.04C258.72 128.04 247.64 116.96 247.64 103.29C247.64 89.62 258.72 78.54 272.39 78.54C286.06 78.54 297.14 89.62 297.14 103.29C297.14 116.96 286.06 128.04 272.39 128.04Z" />
			<path id="&lt;Path&gt;" class="shp12" d="M232.85 276.26C223.19 285.92 207.52 285.92 197.85 276.26C188.19 266.59 188.19 250.92 197.85 241.25C207.52 231.59 223.19 231.59 232.85 241.25C242.52 250.92 242.52 266.59 232.85 276.26Z" />
		</g>
	</g>
</svg>